<?xml version="1.0" encoding="utf-8"?>
<!-- Generator: Adobe Illustrator 23.0.1, SVG Export Plug-In . SVG Version: 6.00 Build 0)  -->
<svg version="1.1" id="Layer_1" xmlns="http://www.w3.org/2000/svg" xmlns:xlink="http://www.w3.org/1999/xlink" x="0px" y="0px"
	 viewBox="0 0 1000 342" style="enable-background:new 0 0 1000 342;" xml:space="preserve">
<style type="text/css">
	.st0{fill:#FFFFFF;}
	.st1{fill:#DAC0A7;}
	.st2{fill:#544942;}
</style>
<g>
	<g>
		<path class="st1" d="M19,46.49c12.39,0,18.58,17.2,18.58,51.6v47.22c0,34.55-6.2,51.82-18.58,51.82V198h59.03v-0.87
			c-12.39,0-18.58-17.27-18.58-51.82V98.09c0-34.4,6.19-51.6,18.58-51.6v-0.87H19V46.49z"/>
		<path class="st1" d="M170.74,134.16l-38.04-88.55H92.24v0.87c12.39,0,18.58,17.2,18.58,51.6v47.22c0,34.55-6.2,51.82-18.58,51.82
			V198h39.57v-0.87c-12.24,0-18.36-17.27-18.36-51.82v-93.8l46.35,108.23h22.08L172.04,137l36.52-85.27v93.58
			c0,34.55-6.12,51.82-18.37,51.82V198h59.03v-0.87c-12.39,0-18.58-17.27-18.58-51.82V98.09c0-34.4,6.19-51.6,18.58-51.6v-0.87
			h-40.67L170.74,134.16z"/>
		<path class="st1" d="M358,47.25c-7.07-2.84-14.61-4.27-22.63-4.27c-2.04,0-7.36,0.44-15.96,1.31c-8.6,0.87-13.85,1.31-15.74,1.31
			h-40.45v0.87c12.39,0,18.58,17.2,18.58,51.6v47.22c0,34.55-6.2,51.82-18.58,51.82V198h59.03v-0.87
			c-12.39,0-18.58-17.27-18.58-51.82v-17.05c17.63,0,27.25,0,28.86,0c7.87,0,15.67-1.75,23.4-5.25c7.72-3.5,14.25-8.71,19.57-15.63
			c5.32-6.92,7.98-14.61,7.98-23.07c0-8.89-2.48-16.58-7.43-23.06C371.08,54.76,365.07,50.09,358,47.25z M352.86,113.28
			c-5.68,8.24-12.46,12.35-20.33,12.35h-28.86v-77.4c1.89,0,7.11-0.44,15.63-1.31c8.53-0.87,13.89-1.31,16.07-1.31
			c7.72,0,13.99,3.65,18.8,10.93c4.81,7.29,7.22,16.54,7.22,27.77C361.39,95.39,358.55,105.05,352.86,113.28z"/>
		<path class="st1" d="M490.27,174.61c-1.97,4.08-4.59,7.62-7.87,10.6c-3.28,2.99-7.22,5.43-11.81,7.32
			c-4.59,1.9-9.37,2.84-14.32,2.84h-21.86v-72.37c7.58,0.15,13.92,0.44,19.02,0.87c5.1,0.44,10.06,1.24,14.87,2.4
			c4.81,1.17,8.45,3.03,10.93,5.58c2.48,2.55,3.72,5.79,3.72,9.73h0.87v-39.57h-0.87c0,3.79-1.24,6.96-3.72,9.51
			c-2.48,2.55-6.12,4.45-10.93,5.69c-4.81,1.24-9.77,2.08-14.87,2.51c-5.1,0.44-11.44,0.65-19.02,0.65V48.24h19.02
			c6.56,0,12.72,1.57,18.48,4.7c5.76,3.14,10.27,7.25,13.56,12.35c3.28,5.1,4.92,10.42,4.92,15.96h0.87V45.61h-97.29v0.87
			c12.39,0,18.58,17.2,18.58,51.6v47.22c0,34.55-6.2,51.82-18.58,51.82V198H494.1v-35.64h-0.87
			C493.23,166.45,492.24,170.53,490.27,174.61z"/>
		<path class="st1" d="M597.08,145.31l-9.84-17.27c7.44-0.73,14.65-2.88,21.65-6.45c7-3.57,12.86-8.67,17.6-15.3
			c4.74-6.63,7.1-13.96,7.1-21.98c0-8.89-2.48-16.58-7.43-23.06c-4.96-6.48-10.97-11.15-18.04-13.99
			c-7.07-2.84-14.61-4.27-22.63-4.27c-2.04,0-7.36,0.44-15.96,1.31c-8.6,0.87-13.85,1.31-15.74,1.31h-40.45v0.87
			c12.39,0,18.58,17.2,18.58,51.6v47.22c0,34.55-6.2,51.82-18.58,51.82V198h59.03v-0.87c-12.39,0-18.58-17.27-18.58-51.82v-17.05
			c1.6,0,5.39,0,11.37,0l9.84,17.05c2.33,4.08,4.37,7.73,6.12,10.93c1.75,3.21,3.64,7,5.68,11.37c2.04,4.37,3.57,8.13,4.59,11.26
			c1.02,3.14,1.75,6.2,2.18,9.18c0.44,2.99,0.04,5.25-1.2,6.78c-1.24,1.53-3.17,2.3-5.79,2.3V198h59.03v-0.87
			C632.93,197.13,616.75,179.86,597.08,145.31z M582.65,125.63h-19.02h-9.84v-77.4c1.89,0,7.11-0.44,15.63-1.31
			c8.53-0.87,13.89-1.31,16.07-1.31c7.72,0,13.99,3.65,18.8,10.93c4.81,7.29,7.22,16.54,7.22,27.77c0,11.08-2.84,20.74-8.53,28.97
			C597.3,121.52,590.52,125.63,582.65,125.63z"/>
		<path class="st1" d="M717.33,197.13c-12.39,0-18.58-17.27-18.58-51.82V98.09c0-34.4,6.19-51.6,18.58-51.6v-0.87H658.3v0.87
			c12.39,0,18.58,17.2,18.58,51.6v47.22c0,34.55-6.2,51.82-18.58,51.82V198h59.03V197.13z"/>
		<path class="st1" d="M836.48,145.31l-31.05-99.7h-22.08l6.12,19.46l-25.15,80.46l0.22-0.22c-10.79,34.55-22.45,51.82-34.98,51.82
			V198h39.57v-0.87c-11.95,0-12.83-16.54-2.62-49.63l7.43-24.49h33.45l7,22.3c1.31,4.08,2.41,7.76,3.28,11.04
			c0.87,3.28,1.78,7.07,2.73,11.37c0.95,4.3,1.49,8.06,1.64,11.26c0.14,3.21,0.04,6.27-0.33,9.18c-0.36,2.92-1.35,5.14-2.95,6.67
			c-1.61,1.53-3.79,2.3-6.56,2.3V198h59.03v-0.87C858.85,197.13,847.27,179.86,836.48,145.31z M774.82,120.39l15.96-51.16
			l15.96,51.16H774.82z"/>
		<path class="st1" d="M980.13,162.37c0,8.6-3.68,16.25-11.04,22.96c-7.36,6.71-16,10.06-25.91,10.06h-19.02V98.09
			c0-34.4,6.19-51.6,18.58-51.6v-0.87h-59.03v0.87c12.39,0,18.58,17.2,18.58,51.6v47.22c0,34.55-6.2,51.82-18.58,51.82V198H981
			v-35.64H980.13z"/>
		<path class="st1" d="M281.59,255.78c-3.32-1.68-7.17-2.52-11.55-2.52c-1.52,0.04-2.84,0.09-3.96,0.13
			c-1.12,0.05-2.25,0.08-3.39,0.1s-2.09,0.03-2.85,0.03c-0.63,0-1.34-0.01-2.15-0.03c-0.81-0.02-1.58-0.04-2.32-0.07
			c-0.74-0.02-1.6-0.06-2.59-0.1l-0.47,2.96l0.13,0.27c1.12-0.09,1.88-0.13,2.28-0.13c1.03,0,1.7,0.25,2.02,0.74
			c0.31,0.49,0.47,1.46,0.47,2.89l-0.07,28.22c0,1.88-0.35,3.21-1.04,4c-0.7,0.78-2.09,1.38-4.2,1.78l-0.4,3.09
			c1.66-0.27,3.08-0.47,4.27-0.6c1.19-0.13,2.34-0.2,3.46-0.2c0.85,0,1.82,0.04,2.92,0.14c1.1,0.09,2.16,0.18,3.19,0.27
			c1.03,0.09,2.22,0.22,3.56,0.4c3.27,0,6.3-0.6,9.1-1.81c2.8-1.21,5.26-2.9,7.39-5.07c2.13-2.17,3.78-4.69,4.97-7.56
			c1.19-2.87,1.78-5.98,1.78-9.34c0-3.99-0.93-7.49-2.79-10.51C287.49,259.81,284.91,257.46,281.59,255.78z M281.86,288.7
			c-2.78,3.34-6.58,5.01-11.42,5.01c-2.24,0-3.97-0.18-5.21-0.54c-1.23-0.36-2.08-0.98-2.55-1.88c-0.47-0.9-0.71-2.15-0.71-3.76
			c0-1.52,0.09-4.88,0.27-10.08c0.18-5.19,0.43-11.67,0.74-19.41c0.04-0.63,0.22-1.03,0.54-1.21c0.31-0.18,0.94-0.27,1.88-0.27
			c4.43,0,8.18,0.72,11.25,2.15c3.07,1.43,5.4,3.52,6.99,6.25c1.59,2.73,2.38,6.07,2.38,10.01
			C286.03,280.79,284.64,285.37,281.86,288.7z"/>
		<path class="st1" d="M376.45,285.11c-0.27,1.84-0.6,3.3-1.01,4.4c-0.4,1.1-1.03,1.91-1.88,2.45c-0.85,0.54-2.08,0.9-3.7,1.07
			c-1.61,0.18-3.74,0.27-6.38,0.27c-1.61,0-2.79-0.09-3.53-0.27c-0.74-0.18-1.22-0.55-1.44-1.11c-0.22-0.56-0.33-1.44-0.33-2.65
			l0.24-12.82c0.71-0.11,1.4-0.23,2.21-0.31c1.14-0.11,2.14-0.17,2.99-0.17c1.3,0,2.88,0.02,4.74,0.07
			c1.86,0.05,3.41,0.09,4.67,0.14l0.94-3.96l-0.27-0.34c-1.52,0.18-3.08,0.35-4.67,0.5s-2.77,0.23-3.53,0.23s-1.66-0.01-2.69-0.03
			c-1.03-0.02-1.99-0.03-2.89-0.03c-0.6,0-1.03,0-1.37,0l0.56-13.03c0.04-0.85,0.15-1.45,0.3-1.81c0.16-0.36,0.57-0.58,1.24-0.67
			s1.72-0.14,3.16-0.14c2.37,0,4.26,0.05,5.64,0.14c1.39,0.09,2.41,0.29,3.06,0.6c0.65,0.31,1.07,0.8,1.28,1.44
			c0.2,0.65,0.3,1.51,0.3,2.59c0,0.31-0.01,0.77-0.03,1.38c-0.02,0.6-0.06,1.11-0.1,1.51l3.22-0.27c0.09-1.12,0.2-2.33,0.34-3.63
			c0.13-1.3,0.31-2.61,0.54-3.93c0.22-1.32,0.45-2.52,0.67-3.59l-0.2-0.4c-1.48,0.18-3.09,0.34-4.84,0.47
			c-1.75,0.13-3.84,0.22-6.28,0.27c-2.44,0.05-5.45,0.07-9.04,0.07c-0.99,0-2.06-0.01-3.22-0.03c-1.17-0.02-2.28-0.06-3.36-0.1
			c-1.08-0.04-1.99-0.07-2.76-0.07l-0.47,2.96l0.13,0.27c0.36-0.04,0.76-0.08,1.21-0.1c0.45-0.02,0.81-0.03,1.07-0.03
			c1.03,0,1.7,0.25,2.02,0.74c0.31,0.49,0.47,1.46,0.47,2.89l-0.07,28.22c0,1.93-0.37,3.28-1.11,4.06
			c-0.74,0.78-2.12,1.31-4.13,1.58l-0.4,3.09c1.3-0.22,2.83-0.39,4.6-0.5c1.77-0.11,3.35-0.17,4.74-0.17c1.25,0,2.96,0.02,5.11,0.07
			c2.15,0.04,4.56,0.1,7.22,0.17c2.66,0.07,5.34,0.15,8.03,0.23l0.34-0.4c0.22-1.84,0.5-3.83,0.84-5.98
			c0.34-2.15,0.66-3.92,0.97-5.31l-0.2-0.34L376.45,285.11z"/>
		<path class="st1" d="M457.29,274.96c-1.9-1.12-3.84-2.17-5.81-3.16c-1.61-0.85-3.11-1.7-4.5-2.55c-1.39-0.85-2.51-1.8-3.36-2.85
			c-0.85-1.05-1.28-2.25-1.28-3.59c0-1.84,0.8-3.37,2.39-4.6c1.59-1.23,3.62-1.85,6.08-1.85c3.05,0,5.14,0.45,6.28,1.34
			c1.14,0.9,1.71,2.53,1.71,4.9c0,1.03-0.07,2.2-0.2,3.49l0.4,0.34l2.62-0.27c0.13-2.06,0.31-3.95,0.54-5.68
			c0.22-1.72,0.54-3.62,0.94-5.68l-0.2-0.4c-1.75-0.58-3.39-1.01-4.94-1.28c-1.55-0.27-3.33-0.4-5.34-0.4
			c-2.91,0-5.53,0.55-7.86,1.65c-2.33,1.1-4.18,2.59-5.54,4.47c-1.37,1.88-2.05,4.01-2.05,6.38c0,1.93,0.54,3.59,1.61,5.01
			c1.07,1.41,2.45,2.65,4.13,3.73c1.68,1.07,3.42,2.08,5.21,3.02c1.75,0.9,3.39,1.79,4.94,2.69c1.55,0.9,2.81,1.88,3.8,2.96
			c0.98,1.08,1.48,2.35,1.48,3.83c0,2.28-0.86,4.09-2.59,5.41c-1.72,1.32-3.97,1.98-6.75,1.98c-2.42,0-4.26-0.3-5.51-0.91
			c-1.25-0.6-2.1-1.75-2.55-3.43c-0.45-1.68-0.67-4.13-0.67-7.36l-3.02,0.34c0,1.61-0.05,3.14-0.14,4.57
			c-0.09,1.43-0.18,2.68-0.27,3.73c-0.09,1.05-0.22,2.18-0.4,3.39l0.34,0.67c1.75,0.76,3.41,1.33,5,1.71
			c1.59,0.38,3.44,0.57,5.54,0.57c3.27,0,6.15-0.56,8.63-1.68c2.49-1.12,4.43-2.66,5.84-4.64c1.41-1.97,2.12-4.23,2.12-6.79
			c0-2.06-0.63-3.81-1.88-5.24C460.77,277.36,459.2,276.08,457.29,274.96z"/>
		<path class="st1" d="M536.46,293.3c-0.67,0.05-1.32,0.07-1.95,0.07c-1.16,0-1.95-0.31-2.35-0.94c-0.4-0.63-0.6-1.83-0.6-3.63
			c0-1.39,0.02-3.21,0.07-5.47c0.04-2.26,0.11-4.75,0.2-7.46c0.09-2.71,0.19-5.45,0.3-8.23c0.11-2.78,0.23-5.4,0.37-7.86
			c0.09-1.3,0.46-2.2,1.11-2.72c0.65-0.51,1.89-0.88,3.73-1.11l0.27-3.02c-1.3,0.18-2.68,0.32-4.13,0.44
			c-1.46,0.11-2.65,0.17-3.59,0.17c-0.98,0-2.27-0.02-3.86-0.07c-1.59-0.04-2.97-0.09-4.13-0.14l-0.47,2.96l0.13,0.27
			c0.45-0.04,0.95-0.08,1.51-0.1c0.56-0.02,1-0.03,1.31-0.03c0.98,0,1.65,0.25,1.98,0.74c0.33,0.49,0.5,1.46,0.5,2.89l-0.07,28.22
			c0,1.88-0.37,3.21-1.11,4c-0.74,0.78-2.16,1.38-4.27,1.78l-0.4,3.09c1.3-0.22,2.68-0.41,4.13-0.57c1.45-0.16,2.68-0.23,3.66-0.23
			c0.76,0,1.68,0.01,2.76,0.03c1.07,0.02,2.15,0.04,3.22,0.07c1.07,0.02,2.02,0.06,2.82,0.1l0.6-3.09l-0.14-0.27
			C537.67,293.21,537.13,293.26,536.46,293.3z"/>
		<path class="st1" d="M627.05,275.94c-0.87,0.07-1.8,0.1-2.79,0.1c-1.3,0-2.61-0.02-3.93-0.07c-1.32-0.04-2.85-0.11-4.6-0.2
			l-0.6,3.36l0.14,0.27c1.12,0,2.05,0,2.79,0c0.74,0,1.35,0,1.85,0c1.52,0,2.52,0.22,2.99,0.67c0.47,0.45,0.71,1.43,0.71,2.96v8.2
			c-1.57,0.85-3.05,1.49-4.43,1.91c-1.39,0.43-2.98,0.64-4.77,0.64c-3.09,0-5.78-0.81-8.06-2.42c-2.29-1.61-4.06-3.89-5.34-6.82
			c-1.28-2.93-1.91-6.37-1.91-10.31c0-3.72,0.64-6.89,1.91-9.51c1.28-2.62,3.12-4.61,5.54-5.98c2.42-1.37,5.33-2.05,8.73-2.05
			c3.58,0,6.17,0.46,7.76,1.38c1.59,0.92,2.39,2.43,2.39,4.53c0,0.9-0.07,2.11-0.2,3.63l3.16-0.27c0.13-2.06,0.35-3.94,0.64-5.64
			c0.29-1.7,0.66-3.56,1.11-5.58l-0.27-0.4c-1.66-0.31-3.14-0.58-4.43-0.81c-1.3-0.22-2.71-0.41-4.23-0.57
			c-1.52-0.16-2.98-0.24-4.37-0.24c-4.66,0-8.77,1-12.33,2.99c-3.56,1.99-6.33,4.76-8.3,8.3c-1.97,3.54-2.96,7.66-2.96,12.36
			c0,4.21,0.81,7.87,2.42,10.98c1.61,3.11,3.89,5.52,6.82,7.22c2.93,1.7,6.39,2.55,10.38,2.55c2.87,0,5.46-0.26,7.79-0.77
			c2.33-0.52,4.88-1.29,7.66-2.32l0.4-0.6c-0.13-0.58-0.25-1.42-0.33-2.52c-0.09-1.1-0.14-2.23-0.14-3.39c0-2.24,0.07-4.03,0.2-5.37
			c0.14-1.34,0.35-2.4,0.64-3.16c0.29-0.76,0.71-1.37,1.24-1.81l-0.27-1.48C628.92,275.79,627.92,275.87,627.05,275.94z"/>
		<path class="st1" d="M723.82,253.53c-0.58,0-1.23-0.01-1.95-0.03c-0.72-0.02-1.41-0.06-2.08-0.1c-0.67-0.04-1.46-0.09-2.35-0.13
			l-0.6,3.02l0.14,0.27c1.12-0.04,1.97-0.07,2.55-0.07c0.76,0,1.32,0.24,1.68,0.71c0.36,0.47,0.54,1.2,0.54,2.18v27.21h-0.34
			c-1.66-2.37-3.22-4.61-4.7-6.72c-1.48-2.1-3.18-4.57-5.11-7.39c-1.93-2.82-3.97-5.87-6.15-9.14s-4.38-6.63-6.62-10.08
			c-0.9,0.09-1.68,0.16-2.35,0.2c-0.67,0.05-1.39,0.07-2.15,0.07c-0.63,0-1.4-0.03-2.32-0.1c-0.92-0.07-2.07-0.15-3.46-0.23
			l-0.54,2.48l0.2,0.34c2.24,0.22,3.77,0.63,4.6,1.21c0.83,0.58,1.24,1.57,1.24,2.96l-0.87,29.36c-0.05,1.39-0.4,2.4-1.08,3.02
			c-0.67,0.63-1.7,1.03-3.09,1.21l-0.34,3.09c1.34-0.18,2.5-0.31,3.46-0.4c0.96-0.09,1.89-0.14,2.79-0.14
			c0.71,0,1.49,0.01,2.32,0.03c0.83,0.02,1.6,0.06,2.32,0.1c0.71,0.04,1.54,0.09,2.48,0.13l0.6-3.02l-0.14-0.27
			c-0.94,0-1.69,0.01-2.25,0.03c-0.56,0.02-0.95,0.03-1.18,0.03c-0.76,0-1.3-0.2-1.61-0.6c-0.31-0.4-0.47-1.1-0.47-2.08l0.34-28.68
			h0.34c2.73,3.85,5.26,7.47,7.59,10.85c2.33,3.38,4.99,7.31,7.99,11.79c3,4.48,6.14,9.27,9.41,14.38l1.95-0.94l0.94-37.75
			c0.04-1.3,0.44-2.28,1.18-2.96c0.74-0.67,1.87-1.1,3.39-1.28l0.34-3.09c-1.43,0.18-2.67,0.31-3.69,0.4
			C725.74,253.49,724.76,253.53,723.82,253.53z"/>
	</g>
</g>
</svg>
